<?xml version="1.0" encoding="UTF-8"?>
<svg xmlns="http://www.w3.org/2000/svg" xmlns:xlink="http://www.w3.org/1999/xlink" width="843pt" height="460pt" viewBox="0 0 843 460" version="1.1">
<defs>
<filter id="alpha" filterUnits="objectBoundingBox" x="0%" y="0%" width="100%" height="100%">
  <feColorMatrix type="matrix" in="SourceGraphic" values="0 0 0 0 1 0 0 0 0 1 0 0 0 0 1 0 0 0 1 0"/>
</filter>
<mask id="mask0">
  <g filter="url(#alpha)">
<rect x="0" y="0" width="843" height="460" style="fill:rgb(0%,0%,0%);fill-opacity:0.101961;stroke:none;"/>
  </g>
</mask>
<clipPath id="clip1">
  <rect x="0" y="0" width="843" height="460"/>
</clipPath>
<g id="surface5" clip-path="url(#clip1)">
<path style=" stroke:none;fill-rule:nonzero;fill:rgb(42.352941%,38.823529%,100%);fill-opacity:1;" d="M 834.0625 427.117188 C 830.792969 435.199219 826.765625 442.949219 822.035156 450.273438 C 819.816406 453.761719 817.382812 457.113281 814.75 460.300781 C 814.726562 460.332031 814.699219 460.363281 814.667969 460.390625 L 0 460.390625 L 0.109375 460.300781 C 0.84375 459.730469 5.144531 456.242188 11.839844 450.273438 C 16.640625 445.996094 22.664062 440.433594 29.433594 433.742188 C 84.769531 379.269531 191.066406 250.328125 102.539062 132.210938 C 20.238281 22.40625 108.851562 2.480469 167.300781 0.152344 C 189.761719 -0.726562 212.164062 2.9375 233.171875 10.929688 C 260.179688 21.203125 309.535156 36.945312 373.835938 44.164062 C 375.949219 44.402344 378.074219 44.636719 380.230469 44.847656 C 414.273438 48.316406 448.546875 48.941406 482.695312 46.710938 C 483.699219 46.652344 484.710938 46.578125 485.730469 46.507812 C 519.507812 44.132812 553.03125 38.941406 585.949219 30.988281 C 588.085938 30.46875 590.1875 29.976562 592.285156 29.484375 C 701.96875 4.085938 803.085938 90.648438 777.804688 188.476562 C 768.457031 224.660156 770.832031 263.226562 801.992188 294.429688 C 853.011719 345.359375 846.832031 395.519531 834.0625 427.117188 Z M 834.0625 427.117188 "/>
</g>
<mask id="mask1">
  <g filter="url(#alpha)">
<rect x="0" y="0" width="843" height="460" style="fill:rgb(0%,0%,0%);fill-opacity:0.4;stroke:none;"/>
  </g>
</mask>
<clipPath id="clip2">
  <rect x="0" y="0" width="843" height="460"/>
</clipPath>
<g id="surface8" clip-path="url(#clip2)">
<path style=" stroke:none;fill-rule:nonzero;fill:rgb(0%,0%,0%);fill-opacity:1;" d="M 11.839844 450.273438 L 822.035156 450.273438 C 819.816406 453.761719 817.382812 457.113281 814.75 460.300781 L 0.109375 460.300781 C 0.828125 459.691406 5.132812 456.207031 11.839844 450.273438 Z M 11.839844 450.273438 "/>
</g>
<mask id="mask2">
  <g filter="url(#alpha)">
<rect x="0" y="0" width="843" height="460" style="fill:rgb(0%,0%,0%);fill-opacity:0.101961;stroke:none;"/>
  </g>
</mask>
<clipPath id="clip3">
  <rect x="0" y="0" width="843" height="460"/>
</clipPath>
<g id="surface11" clip-path="url(#clip3)">
<path style=" stroke:none;fill-rule:nonzero;fill:rgb(0%,0%,0%);fill-opacity:1;" d="M 535.855469 220.257812 L 535.855469 222.421875 L 462.285156 236.566406 C 440.917969 240.675781 419.242188 244.804688 397.535156 243.226562 C 381.8125 242.082031 367.121094 237.417969 352.015625 233.324219 C 343.476562 231.003906 334.421875 230.082031 331.527344 220.515625 C 327.53125 207.308594 334.035156 187.757812 335.566406 174.375 C 337.03125 161.242188 359.601562 113.296875 356.992188 100.320312 L 491.871094 106.1875 C 492.78125 113.355469 528.429688 149.335938 526.207031 156.210938 C 521.53125 170.714844 510.082031 185.386719 515.945312 199.449219 C 519.683594 208.394531 529.214844 213.171875 535.855469 220.257812 Z M 535.855469 220.257812 "/>
</g>
<mask id="mask3">
  <g filter="url(#alpha)">
<rect x="0" y="0" width="843" height="460" style="fill:rgb(0%,0%,0%);fill-opacity:0.101961;stroke:none;"/>
  </g>
</mask>
<clipPath id="clip4">
  <rect x="0" y="0" width="843" height="460"/>
</clipPath>
<g id="surface14" clip-path="url(#clip4)">
<path style=" stroke:none;fill-rule:nonzero;fill:rgb(0%,0%,0%);fill-opacity:1;" d="M 398.042969 183.957031 C 398.839844 188.496094 399.265625 193.492188 396.949219 197.457031 C 393.863281 202.765625 387.136719 204.460938 381.117188 205.664062 L 360.226562 209.847656 C 358.804688 210.132812 357.292969 210.457031 356.230469 211.429688 C 354.976562 212.554688 354.550781 214.328125 354.367188 216 C 353.523438 223.574219 356.199219 231.035156 358.640625 238.246094 C 363.574219 252.851562 367.714844 267.769531 373.953125 281.863281 C 380.191406 295.957031 388.753906 309.410156 400.976562 318.832031 C 413.195312 328.25 429.367188 333.269531 444.328125 329.585938 C 457.359375 326.378906 468.046875 317.171875 477.261719 307.40625 C 484.863281 299.335938 491.976562 290.535156 495.660156 280.0625 C 498.207031 272.875 499.035156 265.214844 499.832031 257.628906 C 501.070312 246 502.304688 234.367188 503.542969 222.738281 C 504.121094 217.277344 504.503906 211.136719 500.960938 206.949219 C 499.40625 205.105469 497.296875 203.882812 495.140625 202.746094 C 487.121094 198.480469 478.675781 194.960938 471.214844 189.824219 C 463.753906 184.691406 457.132812 177.617188 454.867188 168.84375 C 453.511719 163.574219 453.753906 157.839844 451.445312 152.929688 C 448.863281 147.425781 443.382812 143.699219 437.515625 142.0625 C 431.652344 140.429688 425.464844 140.648438 419.425781 141.332031 C 413.386719 142.011719 390.105469 143.757812 387.605469 150.574219 C 386.261719 154.242188 391.828125 162.113281 393.144531 165.726562 C 395.316406 171.644531 396.957031 177.746094 398.042969 183.957031 Z M 398.042969 183.957031 "/>
</g>
<mask id="mask4">
  <g filter="url(#alpha)">
<rect x="0" y="0" width="843" height="460" style="fill:rgb(0%,0%,0%);fill-opacity:0.101961;stroke:none;"/>
  </g>
</mask>
<clipPath id="clip5">
  <rect x="0" y="0" width="843" height="460"/>
</clipPath>
<g id="surface17" clip-path="url(#clip5)">
<path style=" stroke:none;fill-rule:nonzero;fill:rgb(0%,0%,0%);fill-opacity:1;" d="M 443.492188 333.027344 C 451.761719 333.546875 459.792969 329.308594 465.484375 323.3125 C 471.171875 317.320312 474.925781 309.71875 478.097656 302.039062 C 482.660156 291.089844 486.289062 279.769531 488.941406 268.207031 C 491.140625 258.378906 492.699219 248.203125 491.183594 238.238281 C 489.085938 224.484375 481.308594 211.980469 479.980469 198.128906 C 479.753906 195.710938 479.902344 192.878906 481.84375 191.417969 C 483.046875 190.515625 484.628906 190.390625 486.125 190.300781 C 499.949219 189.480469 515.140625 189.632812 525.847656 198.417969 C 529.109375 201.085938 531.757812 204.425781 534.945312 207.175781 C 542.539062 213.777344 553.273438 217.140625 558.148438 225.90625 C 559.847656 228.957031 560.660156 232.414062 561.847656 235.699219 C 564.648438 243.476562 569.496094 250.316406 574.308594 257.042969 C 569.640625 276.761719 564.273438 296.5 559.605469 316.21875 C 556.871094 327.789062 554.113281 339.402344 549.820312 350.480469 C 547.003906 357.742188 543.464844 365.152344 544.328125 372.929688 C 544.671875 375.988281 545.691406 378.917969 546.578125 381.867188 C 549.6875 392.21875 551.144531 402.996094 550.898438 413.800781 L 341.730469 414.316406 C 351.75 399.9375 354.691406 382.300781 353.671875 364.800781 C 353.179688 356.414062 351.289062 347.980469 347.074219 340.722656 C 340.433594 329.351562 328.746094 321.941406 317.230469 315.59375 C 309.167969 311.191406 300.511719 335.960938 291.796875 333.121094 C 293.203125 323.160156 293.847656 284.699219 293.261719 274.671875 C 293.070312 271.386719 292.777344 268.011719 293.789062 264.871094 C 294.476562 262.722656 295.746094 260.796875 296.605469 258.707031 C 300.042969 250.335938 296.765625 239.632812 302.320312 232.507812 C 306.164062 227.558594 312.898438 226.148438 318.375 223.097656 C 323.996094 219.957031 328.34375 215.027344 333.242188 210.816406 C 342.851562 202.648438 354.589844 197.402344 367.078125 195.695312 C 370.722656 201.445312 372.9375 207.984375 373.535156 214.769531 C 373.910156 219.03125 373.640625 223.351562 374.234375 227.59375 C 375.046875 233.339844 377.421875 238.730469 379.773438 244.042969 C 389.574219 266.191406 399.414062 288.40625 411.832031 309.207031 C 415.34375 315.074219 419.160156 320.945312 424.25 325.515625 C 429.335938 330.085938 436.660156 333.347656 443.492188 333.027344 Z M 443.492188 333.027344 "/>
</g>
<mask id="mask5">
  <g filter="url(#alpha)">
<rect x="0" y="0" width="843" height="460" style="fill:rgb(0%,0%,0%);fill-opacity:0.101961;stroke:none;"/>
  </g>
</mask>
<clipPath id="clip6">
  <rect x="0" y="0" width="843" height="460"/>
</clipPath>
<g id="surface20" clip-path="url(#clip6)">
<path style=" stroke:none;fill-rule:nonzero;fill:rgb(0%,0%,0%);fill-opacity:1;" d="M 356.832031 187.886719 C 356.859375 185.820312 356.859375 183.730469 356.832031 181.621094 C 356.609375 162.671875 356.375 143.546875 352.082031 125.085938 C 351.121094 121.496094 350.371094 117.851562 349.835938 114.171875 C 349.6875 115.433594 349.621094 116.707031 349.640625 117.980469 C 349.726562 122.628906 351.023438 127.15625 352.082031 131.691406 C 356.355469 150.039062 356.617188 169.046875 356.832031 187.886719 Z M 356.832031 187.886719 "/>
<path style=" stroke:none;fill-rule:nonzero;fill:rgb(0%,0%,0%);fill-opacity:1;" d="M 510.109375 138.152344 C 511.074219 133.867188 511.394531 129.460938 511.0625 125.082031 C 510.917969 127.257812 510.601562 129.421875 510.109375 131.550781 C 508.25 139.621094 503.871094 146.890625 502.246094 154.984375 C 501.542969 158.554688 501.347656 162.203125 501.660156 165.828125 C 501.773438 164.402344 501.972656 162.988281 502.246094 161.585938 C 503.871094 153.496094 508.25 146.195312 510.109375 138.152344 Z M 510.109375 138.152344 "/>
<path style=" stroke:none;fill-rule:nonzero;fill:rgb(0%,0%,0%);fill-opacity:1;" d="M 485.539062 120.347656 C 485.898438 119.304688 486.089844 118.214844 486.109375 117.113281 C 486.109375 114.316406 484.820312 111.699219 483.539062 109.21875 C 475.695312 94.015625 465.945312 77.761719 449.613281 72.609375 C 445.140625 71.199219 440.191406 70.628906 436.550781 67.671875 C 434.65625 66.039062 433.496094 63.710938 433.339844 61.214844 C 425.390625 75.816406 411.742188 86.980469 396.949219 94.824219 C 391.085938 97.941406 384.730469 100.8125 380.726562 106.121094 C 376.96875 111.113281 375.875 117.605469 376.527344 123.882812 C 376.898438 119.855469 378.347656 116 380.726562 112.726562 C 384.730469 107.414062 391.078125 104.546875 396.949219 101.425781 C 411.742188 93.585938 425.390625 82.417969 433.339844 67.820312 C 433.496094 70.316406 434.65625 72.640625 436.550781 74.273438 C 440.214844 77.210938 445.140625 77.804688 449.613281 79.210938 C 465.914062 84.347656 475.695312 100.621094 483.539062 115.820312 C 484.332031 117.269531 485.003906 118.785156 485.539062 120.347656 Z M 485.539062 120.347656 "/>
<path style=" stroke:none;fill-rule:nonzero;fill:rgb(0%,0%,0%);fill-opacity:1;" d="M 489.855469 197.726562 C 482.820312 191.125 478.941406 181.878906 475.996094 172.695312 C 474.226562 167.535156 473.046875 162.191406 472.476562 156.765625 C 471.792969 164.300781 473.664062 172.011719 475.996094 179.296875 C 478.925781 188.484375 482.820312 197.742188 489.855469 204.328125 C 496.894531 210.917969 507.808594 214.191406 516.464844 209.933594 C 515.425781 208.152344 514.390625 206.339844 513.363281 204.511719 C 505.324219 206.78125 496.085938 203.550781 489.855469 197.726562 Z M 489.855469 197.726562 "/>
<path style=" stroke:none;fill-rule:nonzero;fill:rgb(0%,0%,0%);fill-opacity:1;" d="M 399.457031 196.605469 C 398.042969 207.925781 391.121094 221.621094 379.855469 226.097656 C 372.035156 229.199219 360.898438 225.636719 352.402344 223.660156 C 351.671875 225.71875 350.835938 227.742188 349.894531 229.714844 C 358.605469 231.445312 371.234375 236.117188 379.855469 232.699219 C 391.121094 228.222656 398.042969 214.527344 399.457031 203.207031 C 399.75 200.375 399.804688 197.523438 399.617188 194.683594 C 399.574219 195.320312 399.507812 195.964844 399.457031 196.605469 Z M 399.457031 196.605469 "/>
</g>
<mask id="mask6">
  <g filter="url(#alpha)">
<rect x="0" y="0" width="843" height="460" style="fill:rgb(0%,0%,0%);fill-opacity:0.0784314;stroke:none;"/>
  </g>
</mask>
<clipPath id="clip7">
  <rect x="0" y="0" width="843" height="460"/>
</clipPath>
<g id="surface23" clip-path="url(#clip7)">
<path style=" stroke:none;fill-rule:nonzero;fill:rgb(0%,0%,0%);fill-opacity:1;" d="M 564.75 254.761719 C 570.375 255.496094 574.734375 260.035156 577.945312 264.703125 C 586.957031 277.6875 590.839844 293.429688 595.164062 308.640625 C 600.539062 327.554688 606.863281 346.167969 614.128906 364.484375 C 615.695312 368.714844 617.597656 372.8125 619.816406 376.738281 C 621.628906 379.769531 623.828125 382.679688 624.625 386.121094 C 626.5625 394.441406 619.707031 402.261719 612.558594 406.898438 C 608.75 409.46875 604.589844 411.476562 600.207031 412.855469 C 595.941406 414.132812 591.492188 414.617188 587.074219 415.101562 L 546.382812 419.503906 C 527.652344 421.542969 508.753906 423.582031 490.015625 421.617188 C 488.835938 417.507812 491.152344 414.601562 490.984375 410.324219 C 490.867188 407.265625 489.519531 404.417969 488.316406 401.601562 C 486.101562 396.582031 484.636719 391.265625 483.96875 385.820312 C 483.757812 383.816406 483.683594 381.761719 482.921875 379.898438 C 482.160156 378.035156 480.523438 376.363281 478.523438 376.230469 C 489.519531 375.136719 497.867188 373.0625 508.863281 371.960938 C 512.945312 371.550781 517.191406 371.089844 520.671875 368.917969 C 524.992188 366.222656 527.410156 361.367188 529.332031 356.65625 C 534.089844 344.992188 537.152344 332.140625 534.652344 319.785156 C 532.601562 309.652344 526.875 300.21875 526.90625 289.878906 C 526.90625 283.726562 529 277.761719 531.476562 272.125 C 534.101562 266.167969 537.527344 260.078125 543.289062 257.058594 C 549.050781 254.035156 558.25 253.878906 564.75 254.761719 Z M 564.75 254.761719 "/>
</g>
<mask id="mask7">
  <g filter="url(#alpha)">
<rect x="0" y="0" width="843" height="460" style="fill:rgb(0%,0%,0%);fill-opacity:0.101961;stroke:none;"/>
  </g>
</mask>
<clipPath id="clip8">
  <rect x="0" y="0" width="843" height="460"/>
</clipPath>
<g id="surface26" clip-path="url(#clip8)">
<path style=" stroke:none;fill-rule:nonzero;fill:rgb(0%,0%,0%);fill-opacity:1;" d="M 188.238281 382.46875 L 197.117188 382.46875 C 207.238281 382.46875 215.441406 390.679688 215.441406 400.808594 L 215.441406 428.035156 L 169.914062 428.035156 L 169.914062 400.808594 C 169.914062 390.679688 178.117188 382.46875 188.238281 382.46875 Z M 188.238281 382.46875 "/>
</g>
<mask id="mask8">
  <g filter="url(#alpha)">
<rect x="0" y="0" width="843" height="460" style="fill:rgb(0%,0%,0%);fill-opacity:0.101961;stroke:none;"/>
  </g>
</mask>
<clipPath id="clip9">
  <rect x="0" y="0" width="843" height="460"/>
</clipPath>
<g id="surface29" clip-path="url(#clip9)">
<path style=" stroke:none;fill-rule:nonzero;fill:rgb(0%,0%,0%);fill-opacity:1;" d="M 206.234375 332.511719 C 205.867188 332.90625 205.472656 333.28125 205.0625 333.628906 C 205.480469 333.628906 205.890625 333.5625 206.308594 333.519531 C 206.292969 333.179688 206.269531 332.84375 206.234375 332.511719 Z M 206.234375 332.511719 "/>
<path style=" stroke:none;fill-rule:nonzero;fill:rgb(0%,0%,0%);fill-opacity:1;" d="M 199.59375 328.15625 C 200.507812 328.097656 201.410156 328 202.320312 327.871094 C 203.136719 327.765625 203.933594 327.546875 204.6875 327.222656 C 204.316406 326.488281 203.890625 325.785156 203.414062 325.117188 C 202.957031 325.394531 202.460938 325.605469 201.945312 325.742188 C 201.226562 326.609375 200.441406 327.414062 199.59375 328.15625 Z M 199.59375 328.15625 "/>
<path style=" stroke:none;fill-rule:nonzero;fill:rgb(0%,0%,0%);fill-opacity:1;" d="M 177.199219 335.984375 C 177.1875 330.316406 180.273438 325.097656 185.242188 322.382812 C 190.210938 319.664062 196.265625 319.882812 201.023438 322.953125 L 201.257812 322.703125 C 197.109375 319.011719 191.300781 317.824219 186.039062 319.597656 C 180.777344 321.375 176.867188 325.835938 175.796875 331.289062 C 174.730469 336.742188 176.660156 342.351562 180.863281 345.984375 C 178.492188 343.191406 177.195312 339.648438 177.199219 335.984375 Z M 177.199219 335.984375 "/>
</g>
<mask id="mask9">
  <g filter="url(#alpha)">
<rect x="0" y="0" width="843" height="460" style="fill:rgb(0%,0%,0%);fill-opacity:0.101961;stroke:none;"/>
  </g>
</mask>
<clipPath id="clip10">
  <rect x="0" y="0" width="843" height="460"/>
</clipPath>
<g id="surface32" clip-path="url(#clip10)">
<path style=" stroke:none;fill-rule:nonzero;fill:rgb(0%,0%,0%);fill-opacity:1;" d="M 212.347656 352.761719 C 213.257812 352.703125 214.164062 352.609375 215.066406 352.476562 C 216.15625 352.375 217.203125 352.023438 218.132812 351.449219 C 220.214844 352.984375 221.546875 355.328125 221.796875 357.90625 C 221.832031 357.585938 221.851562 357.265625 221.847656 356.945312 C 221.863281 354.054688 220.5 351.328125 218.183594 349.605469 C 217.253906 350.179688 216.207031 350.527344 215.117188 350.628906 L 214.386719 350.722656 C 213.761719 351.453125 213.078125 352.136719 212.347656 352.761719 Z M 212.347656 352.761719 "/>
<path style=" stroke:none;fill-rule:nonzero;fill:rgb(0%,0%,0%);fill-opacity:1;" d="M 212.714844 349.652344 C 213.019531 349.65625 213.320312 349.675781 213.625 349.71875 C 214.101562 349.210938 214.570312 348.667969 215.046875 348.140625 C 212.3125 347.410156 209.398438 347.992188 207.15625 349.71875 C 204.917969 351.445312 203.605469 354.113281 203.609375 356.945312 C 203.609375 357.253906 203.609375 357.554688 203.652344 357.855469 C 204.121094 353.195312 208.039062 349.652344 212.714844 349.652344 Z M 212.714844 349.652344 "/>
</g>
<mask id="mask10">
  <g filter="url(#alpha)">
<rect x="0" y="0" width="843" height="460" style="fill:rgb(0%,0%,0%);fill-opacity:0.101961;stroke:none;"/>
  </g>
</mask>
<clipPath id="clip11">
  <rect x="0" y="0" width="843" height="460"/>
</clipPath>
<g id="surface35" clip-path="url(#clip11)">
<path style=" stroke:none;fill-rule:nonzero;fill:rgb(0%,0%,0%);fill-opacity:1;" d="M 169.371094 352.761719 C 168.460938 352.703125 167.550781 352.609375 166.648438 352.476562 C 165.5625 352.375 164.515625 352.023438 163.585938 351.449219 C 161.503906 352.984375 160.171875 355.328125 159.921875 357.90625 C 159.886719 357.585938 159.867188 357.265625 159.871094 356.945312 C 159.855469 354.054688 161.214844 351.328125 163.535156 349.605469 C 164.464844 350.179688 165.511719 350.527344 166.597656 350.628906 L 167.332031 350.722656 C 167.953125 351.457031 168.636719 352.140625 169.371094 352.761719 Z M 169.371094 352.761719 "/>
<path style=" stroke:none;fill-rule:nonzero;fill:rgb(0%,0%,0%);fill-opacity:1;" d="M 169.003906 349.652344 C 168.695312 349.65625 168.390625 349.675781 168.085938 349.71875 C 167.617188 349.210938 167.148438 348.667969 166.671875 348.140625 C 169.402344 347.410156 172.320312 347.992188 174.558594 349.71875 C 176.800781 351.445312 178.113281 354.113281 178.109375 356.945312 C 178.109375 357.253906 178.109375 357.554688 178.0625 357.855469 C 177.597656 353.195312 173.679688 349.652344 169.003906 349.652344 Z M 169.003906 349.652344 "/>
</g>
<mask id="mask11">
  <g filter="url(#alpha)">
<rect x="0" y="0" width="843" height="460" style="fill:rgb(0%,0%,0%);fill-opacity:0.101961;stroke:none;"/>
  </g>
</mask>
<clipPath id="clip12">
  <rect x="0" y="0" width="843" height="460"/>
</clipPath>
<g id="surface38" clip-path="url(#clip12)">
<path style=" stroke:none;fill-rule:nonzero;fill:rgb(0%,0%,0%);fill-opacity:1;" d="M 144.300781 439.554688 L 72.679688 439.554688 C 71 439.554688 69.640625 438.191406 69.640625 436.507812 L 69.640625 402.585938 C 69.640625 401.539062 70.171875 400.570312 71.054688 400.011719 C 71.9375 399.453125 73.042969 399.386719 73.984375 399.832031 C 94.5625 409.605469 116.730469 412.957031 142.890625 399.988281 C 143.835938 399.523438 144.949219 399.574219 145.84375 400.128906 C 146.738281 400.683594 147.285156 401.65625 147.289062 402.710938 L 147.289062 436.457031 C 147.320312 438.140625 145.980469 439.523438 144.300781 439.554688 Z M 144.300781 439.554688 "/>
</g>
<mask id="mask12">
  <g filter="url(#alpha)">
<rect x="0" y="0" width="843" height="460" style="fill:rgb(0%,0%,0%);fill-opacity:0.101961;stroke:none;"/>
  </g>
</mask>
<clipPath id="clip13">
  <rect x="0" y="0" width="843" height="460"/>
</clipPath>
<g id="surface41" clip-path="url(#clip13)">
<path style=" stroke:none;fill-rule:nonzero;fill:rgb(0%,0%,0%);fill-opacity:1;" d="M 87.589844 333.570312 C 87.585938 338.128906 89.117188 342.558594 91.9375 346.136719 C 85.386719 354.472656 86.339844 366.445312 94.121094 373.640625 C 101.902344 380.832031 113.90625 380.832031 121.6875 373.640625 C 129.46875 366.445312 130.417969 354.472656 123.871094 346.136719 C 126.589844 342.683594 87.589844 331.289062 87.589844 333.570312 Z M 87.589844 333.570312 "/>
</g>
<mask id="mask13">
  <g filter="url(#alpha)">
<rect x="0" y="0" width="843" height="460" style="fill:rgb(0%,0%,0%);fill-opacity:0.4;stroke:none;"/>
  </g>
</mask>
<clipPath id="clip14">
  <rect x="0" y="0" width="843" height="460"/>
</clipPath>
<g id="surface44" clip-path="url(#clip14)">
<path style=" stroke:none;fill-rule:nonzero;fill:rgb(0%,0%,0%);fill-opacity:1;" d="M 570.082031 438.292969 L 570.082031 445.230469 L 564.796875 445.964844 L 513.128906 418.320312 L 513.128906 411.859375 L 562.441406 438.269531 C 562.441406 438.269531 568.90625 438.878906 570.082031 438.292969 Z M 570.082031 438.292969 "/>
</g>
</defs>
<g id="surface1">
<use xlink:href="#surface5" mask="url(#mask0)"/>
<path style=" stroke:none;fill-rule:nonzero;fill:rgb(27.058824%,29.411765%,41.176471%);fill-opacity:1;" d="M 834.0625 427.117188 C 830.792969 435.199219 826.765625 442.949219 822.035156 450.273438 C 819.816406 453.761719 817.382812 457.113281 814.75 460.300781 L 0.109375 460.300781 C 0.84375 459.730469 5.144531 456.242188 11.839844 450.273438 C 16.640625 445.996094 22.664062 440.433594 29.433594 433.742188 L 115.292969 415.988281 C 116.402344 415.757812 117.53125 415.644531 118.664062 415.644531 L 210.199219 415.511719 L 210.296875 415.511719 L 255.632812 415.453125 L 255.738281 415.453125 L 294 415.410156 L 344.707031 415.410156 L 449.839844 415.261719 L 495.074219 415.261719 L 513.128906 415.054688 L 519.097656 415.054688 L 571.613281 414.984375 L 596.449219 414.984375 L 657.109375 414.902344 L 675.167969 414.902344 L 732.625 414.820312 L 781.125 414.761719 C 782.472656 414.765625 783.820312 414.921875 785.132812 415.238281 Z M 834.0625 427.117188 "/>
<use xlink:href="#surface8" mask="url(#mask1)"/>
<path style=" stroke:none;fill-rule:nonzero;fill:rgb(27.058824%,29.411765%,41.176471%);fill-opacity:1;" d="M 537.480469 222.105469 L 535.855469 222.421875 L 462.285156 236.566406 C 440.917969 240.675781 419.242188 244.804688 397.535156 243.226562 C 381.8125 242.082031 367.121094 237.417969 352.015625 233.324219 C 343.476562 231.003906 334.421875 230.082031 331.527344 220.515625 C 327.53125 207.308594 334.035156 187.757812 335.566406 174.375 C 337.03125 161.242188 337.894531 147.78125 335.285156 134.800781 C 334.707031 131.882812 333.941406 129.007812 333 126.1875 C 330.382812 118.417969 326.269531 110.339844 328.492188 102.453125 C 330.242188 96.195312 335.585938 91.730469 340.585938 87.589844 C 350.378906 79.519531 360.378906 70.476562 364.265625 58.375 C 366.167969 52.507812 366.527344 46.191406 368.582031 40.367188 C 372.472656 29.289062 382.253906 21.003906 393.132812 16.617188 C 404.007812 12.230469 415.972656 11.296875 427.707031 11.296875 C 438.070312 11.296875 448.421875 11.988281 458.695312 13.359375 C 469.894531 14.828125 481.199219 17.242188 491.042969 22.800781 C 500.886719 28.363281 509.1875 37.476562 511.480469 48.582031 C 514.726562 64.289062 505.710938 81.015625 510.550781 96.269531 C 512.984375 103.980469 518.613281 110.210938 522.519531 117.265625 C 528.957031 129.195312 530.28125 143.226562 526.1875 156.152344 C 521.507812 170.65625 510.058594 185.328125 515.921875 199.390625 C 519.65625 208.335938 529.183594 213.109375 535.824219 220.199219 C 536.417969 220.835938 536.96875 221.46875 537.480469 222.105469 Z M 537.480469 222.105469 "/>
<use xlink:href="#surface11" mask="url(#mask2)"/>
<path style=" stroke:none;fill-rule:nonzero;fill:rgb(93.72549%,71.764706%,72.54902%);fill-opacity:1;" d="M 398.042969 183.957031 C 398.839844 188.496094 399.265625 193.492188 396.949219 197.457031 C 393.863281 202.765625 387.136719 204.460938 381.117188 205.664062 L 360.226562 209.847656 C 358.804688 210.132812 357.292969 210.457031 356.230469 211.429688 C 354.976562 212.554688 354.550781 214.328125 354.367188 216 C 353.523438 223.574219 356.199219 231.035156 358.640625 238.246094 C 363.574219 252.851562 367.714844 267.769531 373.953125 281.863281 C 380.191406 295.957031 388.753906 309.410156 400.976562 318.832031 C 413.195312 328.25 429.367188 333.269531 444.328125 329.585938 C 457.359375 326.378906 468.046875 317.171875 477.261719 307.40625 C 484.863281 299.335938 491.976562 290.535156 495.660156 280.0625 C 498.207031 272.875 499.035156 265.214844 499.832031 257.628906 C 501.070312 246 502.304688 234.367188 503.542969 222.738281 C 504.121094 217.277344 504.503906 211.136719 500.960938 206.949219 C 499.40625 205.105469 497.296875 203.882812 495.140625 202.746094 C 487.121094 198.480469 478.675781 194.960938 471.214844 189.824219 C 463.753906 184.691406 457.132812 177.617188 454.867188 168.84375 C 453.511719 163.574219 453.753906 157.839844 451.445312 152.929688 C 448.863281 147.425781 443.382812 143.699219 437.515625 142.0625 C 431.652344 140.429688 425.464844 140.648438 419.425781 141.332031 C 413.386719 142.011719 390.105469 143.757812 387.605469 150.574219 C 386.261719 154.242188 391.828125 162.113281 393.144531 165.726562 C 395.316406 171.644531 396.957031 177.746094 398.042969 183.957031 Z M 398.042969 183.957031 "/>
<use xlink:href="#surface14" mask="url(#mask3)"/>
<path style=" stroke:none;fill-rule:nonzero;fill:rgb(100%,100%,100%);fill-opacity:1;" d="M 448.320312 263.734375 L 460.570312 237.777344 C 466.3125 225.613281 472.175781 212.832031 471.566406 199.398438 C 471.449219 196.730469 471.421875 193.390625 473.765625 192.179688 C 474.785156 191.765625 475.894531 191.621094 476.984375 191.769531 C 489.878906 192.429688 502.605469 195.003906 514.742188 199.414062 C 517.097656 200.265625 519.507812 201.25 521.15625 203.125 C 522.804688 205.003906 523.472656 207.527344 524.039062 209.949219 C 525.960938 218.136719 527.363281 226.433594 528.238281 234.796875 C 530.4375 255.5 529.34375 276.390625 528.238281 297.160156 L 524.984375 360.566406 C 525 361.46875 524.820312 362.359375 524.449219 363.179688 C 523.640625 364.648438 521.824219 365.140625 520.191406 365.417969 C 513.894531 366.496094 507.457031 366.277344 501.078125 366.035156 C 456.21875 364.332031 411.121094 361.71875 366.550781 367.164062 C 366.75 360.566406 366.644531 353.960938 366.234375 347.355469 C 364.46875 318.824219 357.082031 290.988281 349.824219 263.34375 C 345.59375 247.203125 341.496094 229.597656 348.304688 214.386719 C 349.308594 211.984375 350.746094 209.792969 352.550781 207.917969 C 355.445312 205.078125 359.398438 203.582031 363.3125 202.511719 C 370.0625 200.671875 377.058594 199.878906 384.046875 200.164062 L 430.265625 300.871094 C 432.378906 305.476562 434.117188 310.328125 436.21875 314.875 C 438.109375 307.019531 435.839844 297.8125 438.109375 289.292969 C 440.558594 280.453125 444.414062 271.996094 448.320312 263.734375 Z M 448.320312 263.734375 "/>
<path style=" stroke:none;fill-rule:nonzero;fill:rgb(42.352941%,38.823529%,100%);fill-opacity:1;" d="M 443.492188 333.027344 C 451.761719 333.546875 459.792969 329.308594 465.484375 323.3125 C 471.171875 317.320312 474.925781 309.71875 478.097656 302.039062 C 482.660156 291.089844 486.289062 279.769531 488.941406 268.207031 C 491.140625 258.378906 492.699219 248.203125 491.183594 238.238281 C 489.085938 224.484375 481.308594 211.980469 479.980469 198.128906 C 479.753906 195.710938 479.902344 192.878906 481.84375 191.417969 C 483.046875 190.515625 484.628906 190.390625 486.125 190.300781 C 499.949219 189.480469 515.140625 189.632812 525.847656 198.417969 C 529.109375 201.085938 531.757812 204.425781 534.945312 207.175781 C 542.539062 213.777344 553.273438 217.140625 558.148438 225.90625 C 559.847656 228.957031 560.660156 232.414062 561.847656 235.699219 C 564.648438 243.476562 569.496094 250.316406 574.308594 257.042969 C 569.640625 276.761719 564.273438 296.5 559.605469 316.21875 C 556.871094 327.789062 554.113281 339.402344 549.820312 350.480469 C 547.003906 357.742188 543.464844 365.152344 544.328125 372.929688 C 544.671875 375.988281 545.691406 378.917969 546.578125 381.867188 C 549.6875 392.21875 551.144531 402.996094 550.898438 413.800781 L 341.730469 414.316406 C 351.75 399.9375 354.691406 382.300781 353.671875 364.800781 C 353.179688 356.414062 351.289062 347.980469 347.074219 340.722656 C 340.433594 329.351562 328.746094 321.941406 317.230469 315.59375 C 309.167969 311.191406 300.511719 335.960938 291.796875 333.121094 C 293.203125 323.160156 293.847656 284.699219 293.261719 274.671875 C 293.070312 271.386719 292.777344 268.011719 293.789062 264.871094 C 294.476562 262.722656 295.746094 260.796875 296.605469 258.707031 C 300.042969 250.335938 296.765625 239.632812 302.320312 232.507812 C 306.164062 227.558594 312.898438 226.148438 318.375 223.097656 C 323.996094 219.957031 328.34375 215.027344 333.242188 210.816406 C 342.851562 202.648438 354.589844 197.402344 367.078125 195.695312 C 370.722656 201.445312 372.9375 207.984375 373.535156 214.769531 C 373.910156 219.03125 373.640625 223.351562 374.234375 227.59375 C 375.046875 233.339844 377.421875 238.730469 379.773438 244.042969 C 389.574219 266.191406 399.414062 288.40625 411.832031 309.207031 C 415.34375 315.074219 419.160156 320.945312 424.25 325.515625 C 429.335938 330.085938 436.660156 333.347656 443.492188 333.027344 Z M 443.492188 333.027344 "/>
<use xlink:href="#surface17" mask="url(#mask4)"/>
<path style=" stroke:none;fill-rule:nonzero;fill:rgb(93.72549%,71.764706%,72.54902%);fill-opacity:1;" d="M 495.265625 119.402344 C 495.265625 154.132812 467.132812 182.289062 432.429688 182.289062 C 397.726562 182.289062 369.59375 154.132812 369.59375 119.402344 C 369.59375 84.667969 397.726562 56.511719 432.429688 56.511719 C 467.132812 56.511719 495.265625 84.667969 495.265625 119.402344 Z M 495.265625 119.402344 "/>
<path style=" stroke:none;fill-rule:nonzero;fill:rgb(27.058824%,29.411765%,41.176471%);fill-opacity:1;" d="M 399.457031 203.207031 C 401.179688 186.933594 394.421875 171.015625 386.769531 156.554688 C 383.101562 149.644531 379.175781 142.753906 377.335938 135.160156 C 375.496094 127.566406 376.023438 118.96875 380.726562 112.726562 C 384.730469 107.414062 391.078125 104.546875 396.949219 101.425781 C 413.523438 92.625 428.675781 79.683594 435.964844 62.375 C 431.84375 64.621094 432.914062 71.316406 436.550781 74.273438 C 440.183594 77.230469 445.140625 77.804688 449.613281 79.210938 C 465.914062 84.347656 475.695312 100.621094 483.539062 115.820312 C 484.820312 118.300781 486.125 120.921875 486.109375 123.714844 C 486.097656 126.511719 484.820312 128.992188 483.484375 131.367188 C 479.617188 138.265625 474.878906 144.890625 473.121094 152.601562 C 471.105469 161.402344 473.230469 170.664062 475.996094 179.296875 C 478.925781 188.484375 482.820312 197.742188 489.855469 204.328125 C 496.894531 210.917969 507.808594 214.191406 516.464844 209.933594 C 507.824219 195.0625 498.871094 178.445312 502.246094 161.585938 C 503.871094 153.515625 508.25 146.179688 510.109375 138.152344 C 513.660156 122.84375 507.75 107.089844 501.953125 92.476562 L 484.621094 48.859375 C 481.976562 42.191406 478.964844 35.074219 472.894531 31.296875 C 468.789062 28.75 463.820312 28.089844 459.011719 27.628906 C 443.527344 26.25 427.488281 26.703125 413.078125 32.472656 C 386.820312 42.96875 370.355469 68.851562 357.292969 93.957031 C 353.378906 101.480469 349.515625 109.46875 349.675781 117.949219 C 349.765625 122.601562 351.0625 127.128906 352.117188 131.660156 C 356.414062 150.121094 356.648438 169.246094 356.867188 188.195312 C 357.035156 202.738281 356.28125 216.441406 349.925781 229.683594 C 358.632812 231.414062 371.265625 236.089844 379.886719 232.671875 C 391.121094 228.222656 398.042969 214.527344 399.457031 203.207031 Z M 399.457031 203.207031 "/>
<use xlink:href="#surface20" mask="url(#mask5)"/>
<path style=" stroke:none;fill-rule:nonzero;fill:rgb(100%,100%,100%);fill-opacity:1;" d="M 488.28125 378.507812 C 476.953125 376.707031 465.460938 373.238281 454.230469 375.570312 C 447.722656 376.921875 441.769531 380.164062 436.359375 384.082031 C 439.335938 386.464844 442.808594 388.59375 444.699219 391.910156 C 445.875 394.203125 446.757812 396.636719 447.324219 399.152344 C 448.511719 403.554688 449.707031 408.042969 449.890625 412.621094 C 450.074219 417.199219 449.15625 421.96875 446.429688 425.65625 C 460.710938 427.066406 474.550781 423.542969 488.476562 420.105469 C 490.070312 419.824219 491.585938 419.210938 492.929688 418.304688 C 495.125 416.574219 495.773438 413.492188 495.785156 410.683594 C 495.785156 405.664062 494.378906 400.773438 492.949219 395.960938 C 491.25 390.1875 489.988281 384.242188 488.28125 378.507812 Z M 488.28125 378.507812 "/>
<path style=" stroke:none;fill-rule:nonzero;fill:rgb(42.352941%,38.823529%,100%);fill-opacity:1;" d="M 564.75 254.761719 C 570.375 255.496094 574.734375 260.035156 577.945312 264.703125 C 586.957031 277.6875 590.839844 293.429688 595.164062 308.640625 C 600.539062 327.554688 606.863281 346.167969 614.128906 364.484375 C 615.695312 368.714844 617.597656 372.8125 619.816406 376.738281 C 621.628906 379.769531 623.828125 382.679688 624.625 386.121094 C 626.5625 394.441406 619.707031 402.261719 612.558594 406.898438 C 608.75 409.46875 604.589844 411.476562 600.207031 412.855469 C 595.941406 414.132812 591.492188 414.617188 587.074219 415.101562 L 546.382812 419.503906 C 527.652344 421.542969 508.753906 423.582031 490.015625 421.617188 C 488.835938 417.507812 491.152344 414.601562 490.984375 410.324219 C 490.867188 407.265625 489.519531 404.417969 488.316406 401.601562 C 486.101562 396.582031 484.636719 391.265625 483.96875 385.820312 C 483.757812 383.816406 483.683594 381.761719 482.921875 379.898438 C 482.160156 378.035156 480.523438 376.363281 478.523438 376.230469 C 489.519531 375.136719 497.867188 373.0625 508.863281 371.960938 C 512.945312 371.550781 517.191406 371.089844 520.671875 368.917969 C 524.992188 366.222656 527.410156 361.367188 529.332031 356.65625 C 534.089844 344.992188 537.152344 332.140625 534.652344 319.785156 C 532.601562 309.652344 526.875 300.21875 526.90625 289.878906 C 526.90625 283.726562 529 277.761719 531.476562 272.125 C 534.101562 266.167969 537.527344 260.078125 543.289062 257.058594 C 549.050781 254.035156 558.25 253.878906 564.75 254.761719 Z M 564.75 254.761719 "/>
<use xlink:href="#surface23" mask="url(#mask6)"/>
<path style=" stroke:none;fill-rule:nonzero;fill:rgb(93.72549%,71.764706%,72.54902%);fill-opacity:1;" d="M 309.9375 245.230469 C 312.597656 238.90625 315.304688 232.378906 315.378906 225.515625 C 315.457031 218.101562 312.445312 211.058594 310.144531 204.015625 C 307.296875 195.398438 305.402344 186.492188 304.492188 177.464844 C 304.304688 176.597656 304.433594 175.695312 304.859375 174.917969 C 305.464844 174.058594 306.640625 173.882812 307.671875 173.65625 C 312.746094 172.496094 316.578125 168.394531 319.746094 164.265625 C 324.660156 157.886719 328.808594 150.953125 332.105469 143.605469 C 334.53125 138.199219 337.816406 131.601562 343.738281 131.550781 C 341.355469 142.761719 338.398438 153.839844 334.882812 164.75 C 341.078125 163.164062 346.964844 160.859375 353.160156 159.277344 C 354.371094 158.894531 355.640625 158.722656 356.910156 158.777344 C 360.621094 159.164062 362.894531 164.191406 360.738281 167.234375 C 363.765625 170.785156 368.800781 171.742188 372.761719 174.175781 C 376.71875 176.613281 379.5625 182.644531 376.042969 185.703125 C 375.355469 186.296875 374.484375 186.714844 373.984375 187.476562 C 372.285156 190.105469 376.445312 193.121094 376.101562 196.230469 C 375.824219 198.777344 372.5625 199.964844 370.089844 199.289062 C 367.621094 198.613281 365.695312 196.765625 363.496094 195.410156 C 361.296875 194.050781 358.421875 193.207031 356.289062 194.617188 C 355.714844 201.519531 355.101562 208.554688 352.117188 214.84375 C 351.023438 217.140625 349.625 219.289062 348.746094 221.671875 C 347.902344 224.273438 347.382812 226.964844 347.191406 229.691406 L 344.53125 254.042969 C 331.835938 256.585938 320.449219 252.78125 309.9375 245.230469 Z M 309.9375 245.230469 "/>
<path style=" stroke:none;fill-rule:nonzero;fill:rgb(100%,100%,100%);fill-opacity:1;" d="M 306.835938 267.058594 L 304.5 251.21875 C 304.273438 249.925781 304.152344 248.621094 304.125 247.3125 C 304.125 243.644531 305.738281 240.144531 307.300781 236.808594 C 320.238281 242.855469 334.222656 245.003906 348.496094 245.011719 C 350.378906 245.011719 352.527344 244.835938 353.699219 243.359375 C 356.128906 246.15625 356.199219 250.652344 355.167969 254.203125 C 354.132812 257.753906 352.148438 260.953125 350.828125 264.414062 C 350.160156 266.167969 349.617188 268.082031 348.34375 269.433594 C 346.363281 271.570312 343.152344 271.9375 340.234375 271.921875 C 337.164062 271.902344 334.105469 271.609375 331.085938 271.046875 C 323.273438 269.59375 314.652344 265.65625 306.835938 267.058594 Z M 306.835938 267.058594 "/>
<path style=" stroke:none;fill-rule:nonzero;fill:rgb(42.352941%,38.823529%,100%);fill-opacity:1;" d="M 355.09375 266.410156 C 345.050781 265.265625 335.074219 263.652344 325.164062 261.570312 C 320.304688 260.550781 315.398438 259.414062 310.445312 259.609375 C 307.21875 259.742188 303.75 260.386719 300.914062 258.789062 C 303.679688 268.203125 303.847656 278.121094 300.539062 287.355469 C 298.582031 292.859375 295.601562 297.988281 294.164062 303.652344 C 291.171875 315.5 295.277344 328.417969 291.539062 340.054688 C 291.144531 341.574219 290.367188 342.96875 289.28125 344.105469 C 288.136719 345.152344 286.574219 345.695312 285.519531 346.835938 C 283.964844 348.507812 283.871094 351.023438 283.863281 353.304688 L 283.796875 373.515625 C 283.753906 386.386719 283.921875 400.03125 290.710938 410.933594 C 298.453125 423.40625 314.746094 429.867188 328.929688 426.074219 C 332.703125 425.109375 336.234375 423.378906 339.3125 420.992188 C 344.238281 417.074219 347.375 411.410156 350.445312 405.894531 C 354.109375 399.289062 357.777344 392.539062 358.957031 385.109375 C 359.792969 379.847656 359.324219 374.476562 358.722656 369.1875 C 355.410156 339.84375 348.21875 310.746094 349.765625 281.289062 C 349.996094 275.90625 351.855469 270.71875 355.09375 266.410156 Z M 355.09375 266.410156 "/>
<path style=" stroke:none;fill-rule:nonzero;fill:rgb(93.72549%,71.764706%,72.54902%);fill-opacity:1;" d="M 397.066406 388.199219 C 391.972656 388.492188 386.839844 388.785156 381.769531 388.199219 C 378.105469 387.757812 374.527344 386.855469 370.890625 386.238281 C 350.796875 382.992188 330.285156 388.695312 314.746094 401.851562 C 311.933594 404.257812 309.085938 407.949219 310.640625 411.316406 C 312.3125 414.9375 317.421875 414.835938 321.359375 414.160156 C 317.109375 416.191406 313.355469 419.128906 310.363281 422.765625 C 309.265625 424.109375 308.222656 425.703125 308.433594 427.441406 C 308.882812 431.070312 313.808594 431.730469 317.453125 431.417969 C 316.265625 432.695312 317.0625 434.953125 318.574219 435.820312 C 320.082031 436.683594 321.960938 436.507812 323.667969 436.191406 C 327.445312 435.5 331.09375 434.238281 334.488281 432.445312 C 333.796875 434.242188 334.992188 436.347656 336.6875 437.242188 C 338.378906 438.136719 340.441406 438.070312 342.339844 437.761719 C 351.296875 436.296875 358.773438 430.058594 367.511719 427.609375 C 381.484375 423.699219 396.101562 429.933594 410.621094 430.375 C 415.167969 430.515625 419.828125 430.050781 423.96875 428.175781 C 429.050781 425.863281 433.148438 421.527344 438.515625 419.988281 C 444.472656 418.285156 451.3125 420.242188 456.765625 417.300781 C 460.734375 415.167969 457.15625 398.710938 456.144531 395.542969 C 454.289062 389.746094 452.425781 385.902344 446.246094 385.3125 C 430.613281 383.78125 412.820312 387.289062 397.066406 388.199219 Z M 397.066406 388.199219 "/>
<path style=" stroke:none;fill-rule:nonzero;fill:rgb(100%,100%,100%);fill-opacity:1;" d="M 436.074219 383.707031 C 436.074219 383.707031 459.742188 403.757812 446.085938 425.636719 L 472.476562 416.515625 L 472.476562 397.375 C 472.476562 396.464844 462.457031 382.796875 462.457031 382.796875 L 450.617188 380.972656 Z M 436.074219 383.707031 "/>
<path style=" stroke:none;fill-rule:nonzero;fill:rgb(24.705882%,23.921569%,33.72549%);fill-opacity:1;" d="M 188.238281 382.46875 L 197.117188 382.46875 C 207.238281 382.46875 215.441406 390.679688 215.441406 400.808594 L 215.441406 428.035156 L 169.914062 428.035156 L 169.914062 400.808594 C 169.914062 390.679688 178.117188 382.46875 188.238281 382.46875 Z M 188.238281 382.46875 "/>
<use xlink:href="#surface26" mask="url(#mask7)"/>
<path style=" stroke:none;fill-rule:nonzero;fill:rgb(24.705882%,23.921569%,33.72549%);fill-opacity:1;" d="M 194.5 388.84375 C 194.5 390.855469 192.867188 392.488281 190.855469 392.488281 C 188.84375 392.488281 187.210938 390.855469 187.210938 388.84375 C 187.210938 386.828125 188.84375 385.195312 190.855469 385.195312 C 192.867188 385.195312 194.5 386.828125 194.5 388.84375 Z M 194.5 388.84375 "/>
<path style=" stroke:none;fill-rule:nonzero;fill:rgb(24.705882%,23.921569%,33.72549%);fill-opacity:1;" d="M 194.5 384.285156 C 194.5 386.300781 192.867188 387.933594 190.855469 387.933594 C 188.84375 387.933594 187.210938 386.300781 187.210938 384.285156 C 187.210938 382.273438 188.84375 380.640625 190.855469 380.640625 C 192.867188 380.640625 194.5 382.273438 194.5 384.285156 Z M 194.5 384.285156 "/>
<path style=" stroke:none;fill-rule:nonzero;fill:rgb(24.705882%,23.921569%,33.72549%);fill-opacity:1;" d="M 194.5 379.730469 C 194.5 381.746094 192.867188 383.378906 190.855469 383.378906 C 188.84375 383.378906 187.210938 381.746094 187.210938 379.730469 C 187.210938 377.71875 188.84375 376.085938 190.855469 376.085938 C 192.867188 376.085938 194.5 377.71875 194.5 379.730469 Z M 194.5 379.730469 "/>
<path style=" stroke:none;fill-rule:nonzero;fill:rgb(24.705882%,23.921569%,33.72549%);fill-opacity:1;" d="M 194.5 375.175781 C 194.5 377.1875 192.867188 378.820312 190.855469 378.820312 C 188.84375 378.820312 187.210938 377.1875 187.210938 375.175781 C 187.210938 373.160156 188.84375 371.527344 190.855469 371.527344 C 192.867188 371.527344 194.5 373.160156 194.5 375.175781 Z M 194.5 375.175781 "/>
<path style=" stroke:none;fill-rule:nonzero;fill:rgb(24.705882%,23.921569%,33.72549%);fill-opacity:1;" d="M 194.5 370.617188 C 194.5 372.632812 192.867188 374.265625 190.855469 374.265625 C 188.84375 374.265625 187.210938 372.632812 187.210938 370.617188 C 187.210938 368.605469 188.84375 366.972656 190.855469 366.972656 C 192.867188 366.972656 194.5 368.605469 194.5 370.617188 Z M 194.5 370.617188 "/>
<path style=" stroke:none;fill-rule:nonzero;fill:rgb(24.705882%,23.921569%,33.72549%);fill-opacity:1;" d="M 194.5 366.0625 C 194.5 368.078125 192.867188 369.710938 190.855469 369.710938 C 188.84375 369.710938 187.210938 368.078125 187.210938 366.0625 C 187.210938 364.050781 188.84375 362.417969 190.855469 362.417969 C 192.867188 362.417969 194.5 364.050781 194.5 366.0625 Z M 194.5 366.0625 "/>
<path style=" stroke:none;fill-rule:nonzero;fill:rgb(24.705882%,23.921569%,33.72549%);fill-opacity:1;" d="M 194.5 361.5 C 194.5 363.511719 192.867188 365.144531 190.855469 365.144531 C 188.84375 365.144531 187.210938 363.511719 187.210938 361.5 C 187.210938 359.484375 188.84375 357.855469 190.855469 357.855469 C 192.867188 357.855469 194.5 359.484375 194.5 361.5 Z M 194.5 361.5 "/>
<path style=" stroke:none;fill-rule:nonzero;fill:rgb(24.705882%,23.921569%,33.72549%);fill-opacity:1;" d="M 199.96875 363.328125 C 199.96875 365.339844 198.335938 366.972656 196.324219 366.972656 C 194.3125 366.972656 192.679688 365.339844 192.679688 363.328125 C 192.679688 361.3125 194.3125 359.679688 196.324219 359.679688 C 198.335938 359.679688 199.96875 361.3125 199.96875 363.328125 Z M 199.96875 363.328125 "/>
<path style=" stroke:none;fill-rule:nonzero;fill:rgb(24.705882%,23.921569%,33.72549%);fill-opacity:1;" d="M 203.609375 361.5 C 203.609375 363.511719 201.980469 365.144531 199.96875 365.144531 C 197.953125 365.144531 196.324219 363.511719 196.324219 361.5 C 196.324219 359.484375 197.953125 357.855469 199.96875 357.855469 C 201.980469 357.855469 203.609375 359.484375 203.609375 361.5 Z M 203.609375 361.5 "/>
<path style=" stroke:none;fill-rule:nonzero;fill:rgb(24.705882%,23.921569%,33.72549%);fill-opacity:1;" d="M 207.253906 359.679688 C 207.253906 361.695312 205.621094 363.328125 203.609375 363.328125 C 201.597656 363.328125 199.96875 361.695312 199.96875 359.679688 C 199.96875 357.667969 201.597656 356.035156 203.609375 356.035156 C 205.621094 356.035156 207.253906 357.667969 207.253906 359.679688 Z M 207.253906 359.679688 "/>
<path style=" stroke:none;fill-rule:nonzero;fill:rgb(24.705882%,23.921569%,33.72549%);fill-opacity:1;" d="M 194.5 356.945312 C 194.5 358.957031 192.867188 360.589844 190.855469 360.589844 C 188.84375 360.589844 187.210938 358.957031 187.210938 356.945312 C 187.210938 354.929688 188.84375 353.296875 190.855469 353.296875 C 192.867188 353.296875 194.5 354.929688 194.5 356.945312 Z M 194.5 356.945312 "/>
<path style=" stroke:none;fill-rule:nonzero;fill:rgb(24.705882%,23.921569%,33.72549%);fill-opacity:1;" d="M 194.5 352.386719 C 194.5 354.402344 192.867188 356.035156 190.855469 356.035156 C 188.84375 356.035156 187.210938 354.402344 187.210938 352.386719 C 187.210938 350.375 188.84375 348.742188 190.855469 348.742188 C 192.867188 348.742188 194.5 350.375 194.5 352.386719 Z M 194.5 352.386719 "/>
<path style=" stroke:none;fill-rule:nonzero;fill:rgb(24.705882%,23.921569%,33.72549%);fill-opacity:1;" d="M 194.5 347.832031 C 194.5 349.84375 192.867188 351.476562 190.855469 351.476562 C 188.84375 351.476562 187.210938 349.84375 187.210938 347.832031 C 187.210938 345.816406 188.84375 344.1875 190.855469 344.1875 C 192.867188 344.1875 194.5 345.816406 194.5 347.832031 Z M 194.5 347.832031 "/>
<path style=" stroke:none;fill-rule:nonzero;fill:rgb(24.705882%,23.921569%,33.72549%);fill-opacity:1;" d="M 194.5 343.277344 C 194.5 345.289062 192.867188 346.921875 190.855469 346.921875 C 188.84375 346.921875 187.210938 345.289062 187.210938 343.277344 C 187.210938 341.261719 188.84375 339.628906 190.855469 339.628906 C 192.867188 339.628906 194.5 341.261719 194.5 343.277344 Z M 194.5 343.277344 "/>
<path style=" stroke:none;fill-rule:nonzero;fill:rgb(42.352941%,38.823529%,100%);fill-opacity:1;" d="M 205.984375 331.515625 C 205.078125 331.648438 204.167969 331.742188 203.257812 331.800781 C 204.101562 331.0625 204.886719 330.257812 205.605469 329.394531 C 205.097656 327.863281 204.355469 326.417969 203.40625 325.117188 C 202.5 325.625 201.503906 325.941406 200.472656 326.042969 C 199.570312 326.175781 198.664062 326.269531 197.753906 326.335938 C 198.949219 325.359375 200.0625 323.894531 201.234375 322.667969 C 195.820312 317.753906 187.707031 317.308594 181.785156 321.59375 C 175.859375 325.882812 173.746094 333.734375 176.710938 340.417969 C 179.675781 347.105469 186.914062 350.800781 194.0625 349.277344 C 201.214844 347.757812 206.324219 341.433594 206.316406 334.121094 C 206.316406 333.226562 206.238281 332.335938 206.082031 331.457031 Z M 205.984375 331.515625 "/>
<path style=" stroke:none;fill-rule:nonzero;fill:rgb(42.352941%,38.823529%,100%);fill-opacity:1;" d="M 218.132812 349.628906 C 217.203125 350.203125 216.152344 350.550781 215.066406 350.648438 C 214.164062 350.78125 213.257812 350.882812 212.347656 350.941406 C 213.3125 350.074219 214.214844 349.136719 215.046875 348.140625 C 210.492188 346.953125 205.785156 349.425781 204.175781 353.847656 C 202.566406 358.273438 204.582031 363.195312 208.832031 365.214844 C 213.082031 367.234375 218.167969 365.6875 220.578125 361.644531 C 222.988281 357.601562 221.925781 352.386719 218.132812 349.605469 Z M 218.132812 349.628906 "/>
<path style=" stroke:none;fill-rule:nonzero;fill:rgb(24.705882%,23.921569%,33.72549%);fill-opacity:1;" d="M 189.039062 363.328125 C 189.039062 365.339844 187.40625 366.972656 185.394531 366.972656 C 183.382812 366.972656 181.75 365.339844 181.75 363.328125 C 181.75 361.3125 183.382812 359.679688 185.394531 359.679688 C 187.40625 359.679688 189.039062 361.3125 189.039062 363.328125 Z M 189.039062 363.328125 "/>
<path style=" stroke:none;fill-rule:nonzero;fill:rgb(24.705882%,23.921569%,33.72549%);fill-opacity:1;" d="M 185.394531 361.5 C 185.394531 363.511719 183.761719 365.144531 181.75 365.144531 C 179.738281 365.144531 178.109375 363.511719 178.109375 361.5 C 178.109375 359.484375 179.738281 357.855469 181.75 357.855469 C 183.761719 357.855469 185.394531 359.484375 185.394531 361.5 Z M 185.394531 361.5 "/>
<path style=" stroke:none;fill-rule:nonzero;fill:rgb(24.705882%,23.921569%,33.72549%);fill-opacity:1;" d="M 181.75 359.679688 C 181.75 361.695312 180.121094 363.328125 178.109375 363.328125 C 176.09375 363.328125 174.464844 361.695312 174.464844 359.679688 C 174.464844 357.667969 176.09375 356.035156 178.109375 356.035156 C 180.121094 356.035156 181.75 357.667969 181.75 359.679688 Z M 181.75 359.679688 "/>
<path style=" stroke:none;fill-rule:nonzero;fill:rgb(42.352941%,38.823529%,100%);fill-opacity:1;" d="M 163.585938 349.628906 C 164.515625 350.203125 165.5625 350.550781 166.648438 350.648438 C 167.550781 350.78125 168.460938 350.882812 169.371094 350.941406 C 168.402344 350.078125 167.5 349.140625 166.671875 348.140625 C 171.222656 346.953125 175.929688 349.425781 177.542969 353.847656 C 179.152344 358.273438 177.132812 363.195312 172.886719 365.214844 C 168.636719 367.234375 163.550781 365.6875 161.140625 361.644531 C 158.730469 357.601562 159.789062 352.386719 163.585938 349.605469 Z M 163.585938 349.628906 "/>
<path style=" stroke:none;fill-rule:nonzero;fill:rgb(24.705882%,23.921569%,33.72549%);fill-opacity:1;" d="M 188.238281 385.167969 L 197.117188 385.167969 C 207.238281 385.167969 215.441406 393.378906 215.441406 403.507812 L 215.441406 427.625 C 215.441406 429.34375 214.050781 430.734375 212.332031 430.734375 L 173 430.734375 C 171.28125 430.734375 169.890625 429.34375 169.890625 427.625 L 169.890625 403.507812 C 169.890625 398.640625 171.824219 393.972656 175.265625 390.53125 C 178.707031 387.089844 183.375 385.160156 188.238281 385.167969 Z M 188.238281 385.167969 "/>
<use xlink:href="#surface29" mask="url(#mask8)"/>
<use xlink:href="#surface32" mask="url(#mask9)"/>
<use xlink:href="#surface35" mask="url(#mask10)"/>
<path style=" stroke:none;fill-rule:nonzero;fill:rgb(42.352941%,38.823529%,100%);fill-opacity:1;" d="M 144.300781 439.554688 L 72.679688 439.554688 C 71 439.554688 69.640625 438.191406 69.640625 436.507812 L 69.640625 402.585938 C 69.640625 401.539062 70.171875 400.570312 71.054688 400.011719 C 71.9375 399.453125 73.042969 399.386719 73.984375 399.832031 C 94.5625 409.605469 116.730469 412.957031 142.890625 399.988281 C 143.835938 399.523438 144.949219 399.574219 145.84375 400.128906 C 146.738281 400.683594 147.285156 401.65625 147.289062 402.710938 L 147.289062 436.457031 C 147.320312 438.140625 145.980469 439.523438 144.300781 439.554688 Z M 144.300781 439.554688 "/>
<use xlink:href="#surface38" mask="url(#mask11)"/>
<path style=" stroke:none;fill-rule:nonzero;fill:rgb(24.705882%,23.921569%,33.72549%);fill-opacity:1;" d="M 112.230469 408.210938 C 112.230469 405.144531 110.332031 402.65625 107.992188 402.65625 C 105.652344 402.65625 103.753906 405.144531 103.753906 408.210938 C 103.753906 411.277344 105.652344 413.765625 107.992188 413.765625 C 110.332031 413.765625 112.230469 411.277344 112.230469 408.210938 Z M 112.230469 408.210938 "/>
<path style=" stroke:none;fill-rule:nonzero;fill:rgb(24.705882%,23.921569%,33.72549%);fill-opacity:1;" d="M 112.230469 401.425781 C 112.230469 398.359375 110.332031 395.871094 107.992188 395.871094 C 105.652344 395.871094 103.753906 398.359375 103.753906 401.425781 C 103.753906 404.492188 105.652344 406.980469 107.992188 406.980469 C 110.332031 406.980469 112.230469 404.492188 112.230469 401.425781 Z M 112.230469 401.425781 "/>
<path style=" stroke:none;fill-rule:nonzero;fill:rgb(24.705882%,23.921569%,33.72549%);fill-opacity:1;" d="M 112.230469 394.632812 C 112.230469 391.5625 110.332031 389.078125 107.992188 389.078125 C 105.652344 389.078125 103.753906 391.5625 103.753906 394.632812 C 103.753906 397.699219 105.652344 400.183594 107.992188 400.183594 C 110.332031 400.183594 112.230469 397.699219 112.230469 394.632812 Z M 112.230469 394.632812 "/>
<path style=" stroke:none;fill-rule:nonzero;fill:rgb(24.705882%,23.921569%,33.72549%);fill-opacity:1;" d="M 112.230469 387.84375 C 112.230469 384.777344 110.332031 382.292969 107.992188 382.292969 C 105.652344 382.292969 103.753906 384.777344 103.753906 387.84375 C 103.753906 390.914062 105.652344 393.398438 107.992188 393.398438 C 110.332031 393.398438 112.230469 390.914062 112.230469 387.84375 Z M 112.230469 387.84375 "/>
<path style=" stroke:none;fill-rule:nonzero;fill:rgb(24.705882%,23.921569%,33.72549%);fill-opacity:1;" d="M 112.230469 381.050781 C 112.230469 377.984375 110.332031 375.496094 107.992188 375.496094 C 105.652344 375.496094 103.753906 377.984375 103.753906 381.050781 C 103.753906 384.117188 105.652344 386.605469 107.992188 386.605469 C 110.332031 386.605469 112.230469 384.117188 112.230469 381.050781 Z M 112.230469 381.050781 "/>
<path style=" stroke:none;fill-rule:nonzero;fill:rgb(24.705882%,23.921569%,33.72549%);fill-opacity:1;" d="M 112.230469 374.257812 C 112.230469 371.191406 110.332031 368.703125 107.992188 368.703125 C 105.652344 368.703125 103.753906 371.191406 103.753906 374.257812 C 103.753906 377.324219 105.652344 379.8125 107.992188 379.8125 C 110.332031 379.8125 112.230469 377.324219 112.230469 374.257812 Z M 112.230469 374.257812 "/>
<path style=" stroke:none;fill-rule:nonzero;fill:rgb(24.705882%,23.921569%,33.72549%);fill-opacity:1;" d="M 112.230469 367.472656 C 112.230469 364.40625 110.332031 361.917969 107.992188 361.917969 C 105.652344 361.917969 103.753906 364.40625 103.753906 367.472656 C 103.753906 370.539062 105.652344 373.027344 107.992188 373.027344 C 110.332031 373.027344 112.230469 370.539062 112.230469 367.472656 Z M 112.230469 367.472656 "/>
<path style=" stroke:none;fill-rule:nonzero;fill:rgb(42.352941%,38.823529%,100%);fill-opacity:1;" d="M 123.882812 321.003906 C 124.460938 320.261719 124.984375 319.484375 125.460938 318.675781 L 114.316406 316.84375 L 126.371094 316.929688 C 128.71875 311.835938 128.859375 305.992188 126.757812 300.789062 L 110.59375 309.183594 L 125.503906 298.179688 C 121.699219 291.59375 114.539062 287.683594 106.945312 288.046875 C 99.351562 288.414062 92.597656 292.992188 89.441406 299.914062 C 86.285156 306.835938 87.253906 314.941406 91.953125 320.921875 C 91.046875 322.066406 90.269531 323.308594 89.636719 324.625 L 104.09375 332.226562 L 88.699219 327.019531 C 86.507812 333.523438 87.738281 340.695312 91.976562 346.09375 C 85.425781 354.425781 86.375 366.398438 94.15625 373.59375 C 101.941406 380.789062 113.941406 380.789062 121.722656 373.59375 C 129.507812 366.398438 130.457031 354.425781 123.90625 346.09375 C 129.703125 338.71875 129.703125 328.332031 123.90625 320.957031 Z M 123.882812 321.003906 "/>
<use xlink:href="#surface41" mask="url(#mask12)"/>
<path style=" stroke:none;fill-rule:nonzero;fill:rgb(42.352941%,38.823529%,100%);fill-opacity:1;" d="M 144.300781 441.351562 L 72.679688 441.351562 C 71 441.351562 69.640625 439.988281 69.640625 438.304688 L 69.640625 402.585938 C 69.640625 401.539062 70.171875 400.570312 71.054688 400.011719 C 71.9375 399.453125 73.042969 399.386719 73.984375 399.832031 C 94.5625 409.605469 110.878906 421 142.890625 399.988281 C 144.789062 398.738281 147.289062 400.441406 147.289062 402.710938 L 147.289062 438.292969 C 147.296875 439.957031 145.964844 441.324219 144.300781 441.351562 Z M 144.300781 441.351562 "/>
<path style=" stroke:none;fill-rule:nonzero;fill:rgb(61.176471%,61.176471%,63.137255%);fill-opacity:1;" d="M 675.742188 431.25 L 570.082031 445.238281 L 564.796875 445.9375 L 513.136719 418.320312 L 513.136719 411.859375 L 674.570312 394.234375 Z M 675.742188 431.25 "/>
<path style=" stroke:none;fill-rule:nonzero;fill:rgb(57.647059%,58.039216%,59.607843%);fill-opacity:1;" d="M 543.074219 421.253906 L 657.539062 407.75 L 656.367188 428.902344 L 567.207031 435.445312 Z M 543.074219 421.253906 "/>
<use xlink:href="#surface44" mask="url(#mask13)"/>
<path style=" stroke:none;fill-rule:nonzero;fill:rgb(24.705882%,23.921569%,33.72549%);fill-opacity:1;" d="M 590.363281 328.132812 L 566.644531 438.21875 C 566.15625 440.453125 566.789062 442.789062 568.339844 444.472656 C 569.890625 446.15625 572.160156 446.976562 574.425781 446.675781 L 724.503906 426.792969 C 727.171875 426.441406 729.402344 424.597656 730.25 422.039062 L 762.628906 324.316406 C 763.355469 322.117188 762.953125 319.699219 761.554688 317.851562 C 760.152344 316.007812 757.933594 314.96875 755.621094 315.074219 L 596.902344 322.617188 C 593.726562 322.765625 591.050781 325.027344 590.363281 328.132812 Z M 590.363281 328.132812 "/>
<path style=" stroke:none;fill-rule:nonzero;fill:rgb(100%,100%,100%);fill-opacity:1;" d="M 669.417969 361.96875 C 667.167969 361.730469 665.046875 364.382812 664.675781 367.886719 C 664.308594 371.394531 665.835938 374.429688 668.085938 374.664062 C 670.335938 374.902344 672.460938 372.25 672.828125 368.746094 C 673.195312 365.238281 671.667969 362.207031 669.417969 361.96875 Z M 669.417969 361.96875 "/>
</g>
</svg>
